<svg id="Layer_1" data-name="Layer 1" xmlns="http://www.w3.org/2000/svg" viewBox="0 0 200 200"><defs><style>.cls-1{fill:#181919;}</style></defs><title>Artboard 1</title><path class="cls-1" d="M100,37a63,63,0,1,0,63,63A63,63,0,0,0,100,37Zm45.9,49.36A7.28,7.28,0,0,1,148.32,91a7.69,7.69,0,0,1-.57,4.9A5.14,5.14,0,0,1,144,98.69l-.63-3.41a2.47,2.47,0,0,0,1.93-1.77,4.77,4.77,0,0,0,0-2.19,4.1,4.1,0,0,0-1-2.14,1.78,1.78,0,0,0-1.7-.55,1.48,1.48,0,0,0-1.21,1.08,10.42,10.42,0,0,0-.29,2.39L141,95.19a7.73,7.73,0,0,1-.69,3.17,4.23,4.23,0,0,1-3.19,2.16,5,5,0,0,1-4.2-1.09,7.73,7.73,0,0,1-2.47-4.8,8.45,8.45,0,0,1,.54-5.56,5.1,5.1,0,0,1,3.81-2.69l.62,3.39a3.5,3.5,0,0,0-1.62,1,3.83,3.83,0,0,0-.49,3.22,6.59,6.59,0,0,0,.66,2,2,2,0,0,0,2.25,1.16,1.48,1.48,0,0,0,1.17-1,8.18,8.18,0,0,0,.36-2.51l.07-1.91a11.63,11.63,0,0,1,.62-4,4.21,4.21,0,0,1,3.36-2.39A5,5,0,0,1,145.9,86.36Zm-20.32-15.3,8.32-6.59,2.28,2.88-8.32,6.59a6,6,0,0,0-1.78,1.94q-.73,1.41.63,3.13t2.9,1.32a6,6,0,0,0,2.3-1.28l8.32-6.59,2.28,2.88-8.32,6.59a8.92,8.92,0,0,1-3.89,2q-3.19.5-6-3t-1.57-6.52A8.91,8.91,0,0,1,125.58,71.06ZM107.76,59.88q1.82-4.39,5.15-5.58a9,9,0,0,1,10.46,4.33q1.5,3.2-.31,7.58t-5.14,5.58a9,9,0,0,1-10.46-4.33Q106,64.18,107.76,59.88ZM114,100a14,14,0,1,1-14-14A14,14,0,0,1,114,100ZM89.37,54.08a7.11,7.11,0,0,1,5-2.73q4.28-.5,6.6,2.11a6.22,6.22,0,0,1,1.55,3.06L99,56.94a4.89,4.89,0,0,0-1.09-1.76,3.56,3.56,0,0,0-3-.79,3.52,3.52,0,0,0-2.84,1.93,7.75,7.75,0,0,0-.59,4.59,6.8,6.8,0,0,0,1.67,4.19,3.68,3.68,0,0,0,3.13,1.09,3.38,3.38,0,0,0,2.67-1.56,5.47,5.47,0,0,0,.66-2.09l3.56-.41A7.78,7.78,0,0,1,101.33,67a6.9,6.9,0,0,1-4.65,2.32,7.33,7.33,0,0,1-6-1.7,9.64,9.64,0,0,1-2.86-6.3Q87.27,56.79,89.37,54.08Zm-15.93,5.1,15,10.47L85.3,71.94l-3-2.22-5.17,3.71L78.26,77l-3.07,2.2L70.13,61.57Zm-19,22.17a7.53,7.53,0,0,1,4-4.48q3.19-1.52,7.58.26t5.62,5.11a7.53,7.53,0,0,1-.27,6,7.53,7.53,0,0,1-4,4.48q-3.28,1.5-7.59-.25t-5.61-5.12A7.53,7.53,0,0,1,54.49,81.36Zm15.14,26.76-3.43.7-.71-3.48,3.43-.7ZM51.41,97.44l17.27.37-.08,3.58L51.33,101ZM64.75,134.5l-3-4.31,9.35-10.34L58.17,125l-3-4.26,14.18-9.86,1.92,2.76-9.59,6.67-1.17.8-1.16.79,13.77-5.59,2,2.88-10,10.95,1.14-.81,1.15-.82L77,121.88l1.92,2.76ZM83,145.63l-3.77-1.57,1-18.29,3.61,1.51L83.57,131l5.87,2.45,2.45-2.83,3.48,1.45Zm22.1,2.76a7.52,7.52,0,0,1-2.76-.07,4.27,4.27,0,0,1-1.76-1A5.36,5.36,0,0,1,99.54,146a4.85,4.85,0,0,1-.56-1.76,5.17,5.17,0,0,1,.29-2.48,3.47,3.47,0,0,1,1.81-1.94,3.23,3.23,0,0,1-1.86-1.12,5.69,5.69,0,0,1-.86-2.61L98.2,135a8.76,8.76,0,0,0-.31-1.58,1.44,1.44,0,0,0-.79-.89l-.06-.43,3.95-.54q.24.55.36.89a8.52,8.52,0,0,1,.35,1.45l.24,1.59a3.26,3.26,0,0,0,.86,2.11,2.91,2.91,0,0,0,2.11.27l3.49-.47-.91-6.71,3.5-.48,2.33,17.12Zm28.18-15.32a7.87,7.87,0,0,1-3.27,5.75,8,8,0,0,1-5.2,1.93,6.21,6.21,0,0,1-4.37-1.88l2.8-2.18a3.38,3.38,0,0,0,3.1.72,4.93,4.93,0,0,0,1.8-.91,4.3,4.3,0,0,0,1.74-3.35,7.14,7.14,0,0,0-1.84-4.56q-2-2.51-3.91-2.66a4.77,4.77,0,0,0-3.42,1,4.29,4.29,0,0,0-1.71,2.65,4.5,4.5,0,0,0,.55,3l3.16-2.45,1.77,2.28-5.68,4.42-5.69-7.32,1.89-1.47,1.61,1.48A8.24,8.24,0,0,1,117,127a6.61,6.61,0,0,1,2.24-2.85,7.31,7.31,0,0,1,5.9-1.58,9.06,9.06,0,0,1,5.81,3.76A9.59,9.59,0,0,1,133.3,133.08Zm7.16-6L125.77,118l1.89-3.05L142.35,124Zm2-8.93,1.28-5-13.77-3.51.9-3.52,13.77,3.51,1.28-5,3,.75-3.46,13.56Z"/><path class="cls-1" d="M113.09,68.67a4.12,4.12,0,0,0,3.75-.16,7.07,7.07,0,0,0,2.89-3.68,7.07,7.07,0,0,0,.55-4.63,4.12,4.12,0,0,0-2.54-2.77,4.17,4.17,0,0,0-3.77.15,7,7,0,0,0-2.9,3.67,7,7,0,0,0-.54,4.65A4.17,4.17,0,0,0,113.09,68.67Z"/><path class="cls-1" d="M61.19,89.16a7,7,0,0,0,4.65.51,4.17,4.17,0,0,0,2.75-2.57,4.12,4.12,0,0,0-.18-3.75,7.07,7.07,0,0,0-3.69-2.86A7.08,7.08,0,0,0,60.08,80a4.12,4.12,0,0,0-2.75,2.56,4.17,4.17,0,0,0,.18,3.77A7,7,0,0,0,61.19,89.16Z"/><path class="cls-1" d="M104.94,140.71a4.12,4.12,0,0,0-1.68.51,1.94,1.94,0,0,0-.75,2.07,2.18,2.18,0,0,0,1.27,2,3.58,3.58,0,0,0,1.7.08l3.95-.54-.63-4.6Z"/><polygon class="cls-1" points="79.79 67.86 74.06 63.61 76.2 70.44 79.79 67.86"/><polygon class="cls-1" points="82.7 141.22 87.38 135.81 83.3 134.1 82.7 141.22"/><circle class="cls-1" cx="100" cy="100" r="2.5"/></svg>