<svg id="Layer_1" data-name="Layer 1" xmlns="http://www.w3.org/2000/svg" viewBox="0 0 200 200"><defs><style>.cls-1{fill:#0b0c0c;}</style></defs><title>Artboard 1</title><path class="cls-1" d="M100,79.5A20.5,20.5,0,1,0,120.5,100,20.5,20.5,0,0,0,100,79.5Zm0,22.83a2.33,2.33,0,1,1,2.33-2.33A2.33,2.33,0,0,1,100,102.33Z"/><path class="cls-1" d="M56.66,90.19a7.51,7.51,0,0,0,5,.28,4.47,4.47,0,0,0,2.8-2.91,4.42,4.42,0,0,0-.41-4,7.58,7.58,0,0,0-4.12-2.85,7.59,7.59,0,0,0-5-.3,4.42,4.42,0,0,0-2.8,2.89,4.47,4.47,0,0,0,.4,4A7.5,7.5,0,0,0,56.66,90.19Z"/><path class="cls-1" d="M100,37a63,63,0,1,0,63,63A63,63,0,0,0,100,37Zm49.75,46a7.81,7.81,0,0,1,2.81,4.88,8.25,8.25,0,0,1-.38,5.28,5.52,5.52,0,0,1-3.9,3.15l-.83-3.63a2.65,2.65,0,0,0,2-2,5.12,5.12,0,0,0-.06-2.35,4.39,4.39,0,0,0-1.14-2.25,1.91,1.91,0,0,0-1.85-.51,1.59,1.59,0,0,0-1.24,1.21,11.19,11.19,0,0,0-.2,2.57l0,3.34a8.27,8.27,0,0,1-.59,3.42A4.53,4.53,0,0,1,141,98.57a5.32,5.32,0,0,1-4.55-1,8.29,8.29,0,0,1-2.88-5,9.07,9.07,0,0,1,.32-6,5.47,5.47,0,0,1,4-3.06l.83,3.6A3.74,3.74,0,0,0,137,88.24a4.11,4.11,0,0,0-.38,3.47,7.09,7.09,0,0,0,.8,2.15A2.15,2.15,0,0,0,139.9,95a1.58,1.58,0,0,0,1.2-1.11,8.82,8.82,0,0,0,.27-2.7l0-2.05a12.5,12.5,0,0,1,.47-4.28,4.52,4.52,0,0,1,3.49-2.72A5.33,5.33,0,0,1,149.75,83Zm-22.41-15.7,8.7-7.35,2.54,3-8.69,7.35a6.43,6.43,0,0,0-1.84,2.15q-.74,1.54.78,3.34T132,77.09a6.44,6.44,0,0,0,2.42-1.46l8.69-7.35,2.54,3-8.69,7.35a9.55,9.55,0,0,1-4.1,2.27q-3.4.65-6.51-3T124.42,71A9.56,9.56,0,0,1,127.35,67.29ZM107.87,55.66q1.85-4.74,5.4-6.1A9.61,9.61,0,0,1,124.58,54q1.68,3.39-.16,8.14T119,68.21a9.6,9.6,0,0,1-11.31-4.41Q106.06,60.31,107.87,55.66ZM88.28,49.58a7.63,7.63,0,0,1,5.38-3q4.59-.55,7.08,2.24a6.67,6.67,0,0,1,1.67,3.28l-3.84.46a5.26,5.26,0,0,0-1.18-1.88,3.82,3.82,0,0,0-3.19-.83,3.78,3.78,0,0,0-3,2.08,8.31,8.31,0,0,0-.61,4.93,7.3,7.3,0,0,0,1.81,4.49,4,4,0,0,0,3.37,1.16,3.63,3.63,0,0,0,2.86-1.69,5.81,5.81,0,0,0,.7-2.25l3.82-.46a8.35,8.35,0,0,1-1.94,5.2,7.4,7.4,0,0,1-5,2.51,7.86,7.86,0,0,1-6.48-1.8,10.34,10.34,0,0,1-3.09-6.74Q86,52.49,88.28,49.58ZM70.53,55.41l16.2,11.13L83.34,69l-3.23-2.36-5.52,4,1.22,3.82-3.27,2.38L67,58ZM49,82.23a8.08,8.08,0,0,1,4-5q3.33-1.81,8.14-.15t6.31,5.15a8.08,8.08,0,0,1,.06,6.44,8.08,8.08,0,0,1-4,5q-3.43,1.79-8.14.16t-6.3-5.16A8.08,8.08,0,0,1,49,82.23Zm17.6,28.14-3.65.91-.92-3.7,3.65-.91ZM46.5,98.76l18.5-1,.21,3.84-18.5,1Zm16,40.22-3.37-4.51L68.75,123l-13.68,6-3.33-4.46,14.85-11.08,2.16,2.89-10,7.5-1.22.9-1.21.89,14.56-6.49,2.25,3-10.37,12.1,1.2-.91,1.21-.92,10-7.5,2.16,2.89ZM100,77.75A22.25,22.25,0,1,1,77.75,100,22.25,22.25,0,0,1,100,77.75ZM83.48,150.83l-4.11-1.51.24-19.65,3.94,1.45-.17,4,6.4,2.36,2.49-3.14,3.8,1.4Zm25.25,1.88a8.09,8.09,0,0,1-3,.09,4.57,4.57,0,0,1-2-.94,5.78,5.78,0,0,1-1.21-1.35,5.18,5.18,0,0,1-.71-1.85A5.55,5.55,0,0,1,102,146a3.72,3.72,0,0,1,1.81-2.19,3.46,3.46,0,0,1-2.06-1.09,6.09,6.09,0,0,1-1.08-2.74l-.24-1.22a9.33,9.33,0,0,0-.43-1.67,1.55,1.55,0,0,0-.91-.9l-.09-.46,4.19-.82q.29.57.44.93a9.08,9.08,0,0,1,.47,1.54l.36,1.68a3.5,3.5,0,0,0,1.06,2.2,3.12,3.12,0,0,0,2.28.16l3.71-.73-1.4-7.13,3.71-.73L117.42,151ZM134.91,141a8.56,8.56,0,0,1-5.48,2.33,6.66,6.66,0,0,1-4.77-1.8l2.9-2.47a3.63,3.63,0,0,0,3.36.62,5.28,5.28,0,0,0,1.88-1.07,4.62,4.62,0,0,0,1.7-3.67,7.66,7.66,0,0,0-2.2-4.79q-2.22-2.59-4.32-2.66a5.12,5.12,0,0,0-3.62,1.22,4.6,4.6,0,0,0-1.7,2.92,4.82,4.82,0,0,0,.74,3.22l3.26-2.78,2,2.35-5.87,5-6.46-7.56,1.95-1.67,1.8,1.51a8.88,8.88,0,0,1,.33-2.71,7.1,7.1,0,0,1,2.26-3.16,7.83,7.83,0,0,1,6.24-2,9.72,9.72,0,0,1,6.42,3.74,10.28,10.28,0,0,1,2.8,7.09A8.44,8.44,0,0,1,134.91,141Zm11-13.7-16.24-8.91,1.85-3.37L147.77,124ZM147.77,117l1-5.44-15-2.89.74-3.83,15,2.89,1.05-5.47,3.22.62L151,117.6Z"/><polygon class="cls-1" points="82.92 146.11 87.69 140.1 83.24 138.46 82.92 146.11"/><path class="cls-1" d="M113.78,65a4.42,4.42,0,0,0,4-.26,7.58,7.58,0,0,0,3-4,7.59,7.59,0,0,0,.49-5,4.42,4.42,0,0,0-2.78-2.91,4.48,4.48,0,0,0-4,.25,7.51,7.51,0,0,0-3,4,7.51,7.51,0,0,0-.47,5A4.47,4.47,0,0,0,113.78,65Z"/><path class="cls-1" d="M108,144.49a4.43,4.43,0,0,0-1.77.65,2.08,2.08,0,0,0-.68,2.26,2.34,2.34,0,0,0,1.48,2,3.85,3.85,0,0,0,1.82,0l4.19-.82-1-4.88Z"/><polygon class="cls-1" points="77.4 64.66 71.22 60.14 73.56 67.45 77.4 64.66"/></svg>