<svg id="Layer_1" data-name="Layer 1" xmlns="http://www.w3.org/2000/svg" viewBox="0 0 200 200"><defs><style>.cls-1,.cls-2,.cls-3,.cls-4,.cls-6{fill:none;stroke:#181718;stroke-miterlimit:10;}.cls-1{stroke-width:5px;}.cls-2{stroke-width:0.75px;}.cls-3{stroke-width:0.25px;}.cls-5{fill:#0b0c0c;}.cls-6{stroke-width:8px;}.cls-7{font-size:26px;fill:#181718;font-family:Helvetica-Bold, Helvetica;font-weight:700;}</style></defs><title>Artboard 1</title><circle class="cls-1" cx="100" cy="100" r="21"/><circle class="cls-2" cx="100" cy="100" r="58.5"/><circle class="cls-3" cx="100" cy="100" r="23.4"/><circle class="cls-2" cx="100" cy="100" r="60.81"/><circle class="cls-4" cx="100" cy="100" r="61.6"/><circle class="cls-5" cx="100" cy="100" r="1.75"/><circle class="cls-6" cx="100" cy="100" r="21"/><text class="cls-7" transform="matrix(0.81, -0.59, 0.59, 0.81, 72.13, 77.4)">A</text><text class="cls-7" transform="matrix(0.99, -0.13, 0.13, 0.99, 86.29, 66.81)">C</text><text class="cls-7" transform="translate(103.32 64.04) rotate(21.57)">O</text><text class="cls-7" transform="translate(120.7 70.68) rotate(50.34)">U</text><text class="cls-7" transform="translate(132.06 84.21) rotate(77.92)">S</text><text class="cls-7" transform="matrix(-0.21, 0.98, -0.98, -0.21, 135.54, 99.7)">T</text><text class="cls-7" transform="translate(131.95 113.9) rotate(119.56)">I</text><text class="cls-7" transform="translate(130.08 119.92) rotate(139.74)">G</text><text class="cls-7" transform="matrix(-0.98, 0.18, -0.18, -0.98, 115.62, 132.34)">R</text><text class="cls-7" transform="translate(97.33 135.81) rotate(-160.57)">A</text><text class="cls-7" transform="matrix(-0.62, -0.78, 0.78, -0.62, 79.56, 129.99)">M</text><text class="cls-7" transform="matrix(-0.27, -0.96, 0.96, -0.27, 67.57, 112.75)">.</text><text class="cls-7" transform="translate(65.61 105.48) rotate(-93.18)">I</text><text class="cls-7" transform="translate(63.91 99.04) rotate(-72.24)">O</text><circle class="cls-2" cx="100" cy="100" r="26.5"/><circle class="cls-2" cx="100" cy="100" r="28.5"/></svg>