<svg id="Layer_1" data-name="Layer 1" xmlns="http://www.w3.org/2000/svg" viewBox="0 0 200 200"><defs><style>.cls-1,.cls-3,.cls-5,.cls-6,.cls-8{fill:none;stroke:#181718;stroke-miterlimit:10;}.cls-1{stroke-width:0.75px;}.cls-2{fill:#181718;}.cls-3{stroke-width:5px;}.cls-4{fill:#fff;}.cls-5{stroke-width:0.25px;}.cls-7{fill:#0b0c0c;}.cls-8{stroke-width:6px;}</style></defs><title>Artboard 1</title><circle class="cls-1" cx="100" cy="100" r="33.98"/><circle class="cls-1" cx="100" cy="100" r="53.88"/><circle class="cls-1" cx="100" cy="100" r="35.08"/><circle class="cls-2" cx="100" cy="100" r="2.09"/><circle class="cls-3" cx="100" cy="100" r="21"/><circle class="cls-1" cx="100" cy="100" r="36.63"/><circle class="cls-1" cx="100" cy="100" r="38"/><circle class="cls-1" cx="100" cy="100" r="39.5"/><circle class="cls-1" cx="100" cy="100" r="41"/><circle class="cls-1" cx="100" cy="100" r="42.5"/><circle class="cls-1" cx="100" cy="100" r="44"/><circle class="cls-1" cx="100" cy="100" r="45.5"/><circle class="cls-1" cx="100" cy="100" r="47"/><circle class="cls-1" cx="100" cy="100" r="48"/><circle class="cls-1" cx="100" cy="100" r="49.5"/><circle class="cls-1" cx="100" cy="100" r="50.83"/><circle class="cls-1" cx="100" cy="100" r="51.94"/><circle class="cls-1" cx="100" cy="100" r="53"/><path class="cls-4" d="M37,100a63,63,0,1,1,63,63A63,63,0,0,1,37,100ZM72.84,76.88l3-2.2a.16.16,0,0,0,.06-.17l-1.16-3.65a.15.15,0,0,1,.06-.17l5.4-3.9a.15.15,0,0,1,.18,0l3.07,2.26a.17.17,0,0,0,.19,0l3.16-2.29a.16.16,0,0,0,0-.26L70.78,55.41a.15.15,0,0,0-.18,0l-3.41,2.46a.16.16,0,0,0,0,.17L72.59,76.8A.16.16,0,0,0,72.84,76.88ZM71.76,60.41l5.67,4.18a.16.16,0,0,1,0,.25l-3.54,2.55a.15.15,0,0,1-.24-.07l-2.13-6.73A.16.16,0,0,1,71.76,60.41ZM86.3,57.53a10.43,10.43,0,0,0,3.16,6.79A7.92,7.92,0,0,0,96,66.1a7.49,7.49,0,0,0,5-2.56,8.44,8.44,0,0,0,1.91-5.07.17.17,0,0,0-.18-.17l-3.55.45a.16.16,0,0,0-.13.14A5.8,5.8,0,0,1,98.41,61a3.68,3.68,0,0,1-2.88,1.72,4,4,0,0,1-3.4-1.15,7.38,7.38,0,0,1-1.86-4.52,9.55,9.55,0,0,1,.28-4.28,4.4,4.4,0,0,1,5.38-2.69,3.38,3.38,0,0,1,1.21.69A5.27,5.27,0,0,1,98.3,52.6a.15.15,0,0,0,.16.09l3.59-.45a.16.16,0,0,0,.14-.19,6.94,6.94,0,0,0-1.67-3.14c-1.69-1.87-4.08-2.6-7.17-2.21a7.68,7.68,0,0,0-5.42,3Q85.68,52.67,86.3,57.53Zm38.34,4.85q1.89-4.77.21-8.21a9.69,9.69,0,0,0-11.41-4.51Q109.85,51,108,55.79c-1.24,3.12-1.3,5.87-.19,8.22.77,1.88,2.41,3.3,4.9,4.29a8.13,8.13,0,0,0,6.5.22C121.58,67.55,123.41,65.51,124.64,62.38Zm-10.76,2.84a4.5,4.5,0,0,1-2.81-3,7.59,7.59,0,0,1,.5-5,7.64,7.64,0,0,1,3.08-4,4.53,4.53,0,0,1,4.08-.23,4.49,4.49,0,0,1,2.8,3,7.65,7.65,0,0,1-.53,5,7.62,7.62,0,0,1-3.06,4A4.46,4.46,0,0,1,113.88,65.22Zm13.63,2.39a9.64,9.64,0,0,0-3,3.67q-1.25,3.28,1.86,7t6.54,3.12a9.59,9.59,0,0,0,4.17-2.25l8.73-7.24a.15.15,0,0,0,0-.22l-2.33-2.82a.15.15,0,0,0-.22,0l-8.73,7.23a6.48,6.48,0,0,1-2.46,1.45c-1.11.31-2.17-.15-3.17-1.36s-1.27-2.35-.76-3.38a6.51,6.51,0,0,1,1.88-2.15l8.73-7.23a.17.17,0,0,0,0-.22l-2.34-2.82a.15.15,0,0,0-.22,0ZM138,84.21a.17.17,0,0,0-.2-.13,5.48,5.48,0,0,0-3.88,3,9.19,9.19,0,0,0-.42,6,8.37,8.37,0,0,0,2.83,5.12,5.35,5.35,0,0,0,4.58,1,4.59,4.59,0,0,0,3.39-2.44,8.42,8.42,0,0,0,.65-3.45L145,90a10.65,10.65,0,0,1,.24-2.59,1.61,1.61,0,0,1,1.27-1.21,1.94,1.94,0,0,1,1.86.55,4.52,4.52,0,0,1,1.11,2.29,5.19,5.19,0,0,1,0,2.38,2.67,2.67,0,0,1-1.9,1.94.15.15,0,0,0-.1.17l.72,3.38a.16.16,0,0,0,.2.12A5.52,5.52,0,0,0,152.24,94a8.35,8.35,0,0,0,.47-5.32,7.89,7.89,0,0,0-2.77-5,5.39,5.39,0,0,0-4.47-.94,4.57,4.57,0,0,0-3.56,2.7,12.78,12.78,0,0,0-.55,4.32v2.07a8.82,8.82,0,0,1-.31,2.72,1.58,1.58,0,0,1-1.23,1.1,2.17,2.17,0,0,1-2.48-1.18,7,7,0,0,1-.77-2.18,4.15,4.15,0,0,1,.43-3.5,3.65,3.65,0,0,1,1.6-1.05.16.16,0,0,0,.1-.17Zm15.61,19.86-2.93-.65a.17.17,0,0,0-.19.12l-1.13,5.19a.15.15,0,0,1-.19.12l-14.74-3.22a.16.16,0,0,0-.18.12l-.78,3.54a.17.17,0,0,0,.12.19l14.74,3.22a.15.15,0,0,1,.12.18l-1.13,5.17a.15.15,0,0,0,.12.18l2.93.64a.15.15,0,0,0,.19-.11l3.17-14.51A.14.14,0,0,0,153.58,104.07Zm-8,23.75,1.76-3.1a.16.16,0,0,0-.05-.22l-16-9.07a.14.14,0,0,0-.21.06l-1.77,3.1a.17.17,0,0,0,.06.22l16,9.07A.14.14,0,0,0,145.57,127.82Zm-21.07,13.7a.17.17,0,0,0,0,.25,6.76,6.76,0,0,0,4.68,1.71,9.62,9.62,0,0,0,8.82-8.69,10.42,10.42,0,0,0-2.8-7.17,9.8,9.8,0,0,0-6.47-3.8,7.91,7.91,0,0,0-6.31,2,7.13,7.13,0,0,0-2.29,3.18,8,8,0,0,0-.34,2.41.15.15,0,0,1-.25.12l-1.47-1.23a.15.15,0,0,0-.2,0l-1.75,1.49a.15.15,0,0,0,0,.22l6.29,7.42a.15.15,0,0,0,.22,0l5.71-4.83a.17.17,0,0,0,0-.22l-1.82-2.15a.16.16,0,0,0-.22,0l-3,2.58a.16.16,0,0,1-.24-.05,4.82,4.82,0,0,1-.64-3.09,4.63,4.63,0,0,1,1.73-2.94,5.17,5.17,0,0,1,3.66-1.23c1.42,0,2.87,1,4.36,2.71a7.78,7.78,0,0,1,2.2,4.85,4.67,4.67,0,0,1-1.73,3.7,5.45,5.45,0,0,1-1.91,1.07,3.67,3.67,0,0,1-3.29-.57.17.17,0,0,0-.19,0Zm-16.29,11.23,8.65-1.61A.15.15,0,0,0,117,151l-3.36-18.09a.16.16,0,0,0-.19-.12l-3.45.64a.16.16,0,0,0-.12.18l1.29,6.91a.16.16,0,0,1-.13.18l-3.6.67a3.14,3.14,0,0,1-2.3-.18,3.52,3.52,0,0,1-1-2.23l-.35-1.71a9.21,9.21,0,0,0-.46-1.55c-.09-.24-.24-.55-.43-.94l-4.24.79.08.46a1.56,1.56,0,0,1,.91.92,10.2,10.2,0,0,1,.42,1.69l.23,1.24a6.12,6.12,0,0,0,1.06,2.77,3.33,3.33,0,0,0,1.72,1,.15.15,0,0,1,0,.27,3.65,3.65,0,0,0-1.54,2,5.45,5.45,0,0,0-.18,2.7,5,5,0,0,0,.7,1.87,5.89,5.89,0,0,0,1.21,1.38,4.67,4.67,0,0,0,2,1A8,8,0,0,0,108.21,152.75Zm.21-3.34a3.89,3.89,0,0,1-1.84,0,2.34,2.34,0,0,1-1.47-2,2.11,2.11,0,0,1,.7-2.28,4.5,4.5,0,0,1,1.79-.64l4-.74a.16.16,0,0,1,.18.12l.86,4.64a.16.16,0,0,1-.12.18ZM96.5,135.52,93,134.27a.16.16,0,0,0-.17,0l-2.34,3a.17.17,0,0,1-.18.05L84,135.18a.15.15,0,0,1-.11-.15l.11-3.81a.15.15,0,0,0-.1-.15l-3.69-1.3a.15.15,0,0,0-.2.15l0,19.52a.15.15,0,0,0,.1.14l4,1.4a.16.16,0,0,0,.17,0l12.31-15.17A.15.15,0,0,0,96.5,135.52ZM83.58,145.78l.2-7a.16.16,0,0,1,.21-.14l4.11,1.45a.15.15,0,0,1,.07.24l-4.31,5.59A.16.16,0,0,1,83.58,145.78ZM69.16,124.37l-8.91,11.19a.17.17,0,0,0,0,.19L63.61,140a.15.15,0,0,0,.22,0l14.42-11.43a.15.15,0,0,0,0-.22l-2.07-2.61a.15.15,0,0,0-.22,0l-9.79,7.76-1.19,1-1.18,1,10-12.42a.18.18,0,0,0,0-.2L71.65,120a.15.15,0,0,0-.19,0l-14.39,6.92,1.19-.93,1.21-.94,9.79-7.77a.16.16,0,0,0,0-.22l-2.07-2.61a.15.15,0,0,0-.22,0L52.58,125.83a.15.15,0,0,0,0,.22l3.32,4.19a.15.15,0,0,0,.19,0L69,124.13A.15.15,0,0,1,69.16,124.37ZM67.09,111l-.94-3.4a.15.15,0,0,0-.19-.11l-3.36.93a.16.16,0,0,0-.11.19l.94,3.41a.16.16,0,0,0,.2.1l3.35-.92A.15.15,0,0,0,67.09,111Zm-20.47-9.89.2,3.56a.16.16,0,0,0,.17.15l18.37-1a.16.16,0,0,0,.15-.16l-.2-3.57a.16.16,0,0,0-.17-.15l-18.37,1A.16.16,0,0,0,46.62,101.14ZM60.84,77.88q-4.89-1.57-8.21.34a8.11,8.11,0,0,0-4,5.17,8.13,8.13,0,0,0,.21,6.51q1.57,3.48,6.48,5.06c3.2,1,5.94.91,8.22-.35a8.19,8.19,0,0,0,4-5.18,8.19,8.19,0,0,0-.21-6.5Q65.64,79.41,60.84,77.88Zm3.54,10.54a4.5,4.5,0,0,1-2.76,3,7.62,7.62,0,0,1-5.07-.17,7.59,7.59,0,0,1-4.22-2.81,4.84,4.84,0,0,1,2.27-7,7.7,7.7,0,0,1,5,.19,7.66,7.66,0,0,1,4.23,2.79A4.46,4.46,0,0,1,64.38,88.42Z"/><circle class="cls-1" cx="100" cy="100" r="59.61"/><circle class="cls-1" cx="100" cy="100" r="25.36"/><circle class="cls-5" cx="100" cy="100" r="23.4"/><circle class="cls-1" cx="100" cy="100" r="60.81"/><circle class="cls-6" cx="100" cy="100" r="61.6"/><circle class="cls-7" cx="100" cy="100" r="2.5"/><circle class="cls-8" cx="100" cy="100" r="21"/></svg>